# xmcd
#
# Track frame offsets:
#	150
#	14349
#	33402
#	49837
#	69072
#	89575
#	109980
#	139686
#	159425
#	189655
#
# Disc length: 2730 seconds
# Revision: 0
# Processed by: cddbd v1.5.2PL0 Copyright (c) Steve Scherf et al.
# Submitted via: dBpowerAMP V12.0
#
DISCID=810aa80a
DTITLE=Suzanne And The Blues Church - The Cost Of Love
DYEAR=2011
DGENRE=Blues
TTITLE0=Cheatin' On Me
TTITLE1=The Cost of Love
TTITLE2=All Your Love (I Miss Lovin)
TTITLE3=Pay Day Loan
TTITLE4=Musta Been Gone 2 Long
TTITLE5=Damm Right (I Got The Blues)
TTITLE6=Dusty 6 String Box
TTITLE7=Poor Man's Dream
TTITLE8=Set Me Free
TTITLE9=Mr. Bailey
EXTD=
EXTT0=
EXTT1=
EXTT2=
EXTT3=
EXTT4=
EXTT5=
EXTT6=
EXTT7=
EXTT8=
EXTT9=
PLAYORDER=
